<svg width="512" height="512" viewBox="0 0 64 64" xmlns="http://www.w3.org/2000/svg">
  <title>Trickster Inc</title>
  <defs>
    <linearGradient id="tfire" x1="0" y1="0" x2="1" y2="1">
      <stop offset="0" stop-color="#ffc400"/>
      <stop offset=".45" stop-color="#ff7a00"/>
      <stop offset="1" stop-color="#ff2d00"/>
    </linearGradient>
  </defs>
  <!-- shield -->
  <path d="M32 1.5 L59 11 V39 L32 62.5 L5 39 V11 Z" fill="#0d0d11" stroke="url(#tfire)" stroke-width="3"/>
  <path d="M32 5.5 L55.5 13.8 V37.4 L32 57.8 L8.5 37.4 V13.8 Z" fill="none" stroke="#ff7a00" stroke-opacity=".25" stroke-width="1"/>
  <!-- fox head -->
  <path d="M14 9 L26 17 L32 21 L38 17 L50 9 L52 27 L41 40 L32 55 L23 40 L12 27 Z" fill="url(#tfire)"/>
  <!-- eyes -->
  <path d="M22 28 L30 30.5 L24 34.5 Z" fill="#0d0d11"/>
  <path d="M42 28 L34 30.5 L40 34.5 Z" fill="#0d0d11"/>
  <!-- nose -->
  <path d="M28.5 44 L35.5 44 L32 49.5 Z" fill="#0d0d11"/>
  <!-- inner-ear shading -->
  <path d="M17 12.5 L24.5 17.5 L20.5 23 Z" fill="#0d0d11" fill-opacity=".55"/>
  <path d="M47 12.5 L39.5 17.5 L43.5 23 Z" fill="#0d0d11" fill-opacity=".55"/>
</svg>
